PathFileType	4	(X/Y/Z)	C:/Users/dbak576/Desktop/Duncan Bakke Modelling Files/H30s1/Static_H30s1.trc	
DataRate	CameraRate	NumFrames	NumMarkers	Units	OrigDataRate	OrigDataStartFrame	OrigNumFrames	
200.00	200.00	4	63	mm	200.00	1504	360	
Frame#	Time	LFHD			RFHD			LBHD			RBHD			C7			T10			CLAV			RBack			LASI			RASI			LPSI			RPSI			RACR1			RUA1			RElbow			RElbowM			RFA1			RWRR			RWRU			RCAR			LACR1			LUA1			LElbow			LElbowM			LFA1			LWRR			LWRU			LCAR			RTH1			RTH3			RTH2			RTH4			RLFC			RMFC			RTB1			RTB3			RTB2			RTB4			RLMAL			RMMAL			RMT1			RMT5			RToe			LTH1			LTH3			LTH2			LTH4			LLFC			LMFC			LTB1			LTB3			LTB2			LTB4			LLMAL			LMMAL			LCAL			LMT1			LMT5			LToe			RCAL			STRN			*61			*62			
		X1	Y1	Z1	X2	Y2	Z2	X3	Y3	Z3	X4	Y4	Z4	X5	Y5	Z5	X6	Y6	Z6	X7	Y7	Z7	X8	Y8	Z8	X9	Y9	Z9	X10	Y10	Z10	X11	Y11	Z11	X12	Y12	Z12	X13	Y13	Z13	X14	Y14	Z14	X15	Y15	Z15	X16	Y16	Z16	X17	Y17	Z17	X18	Y18	Z18	X19	Y19	Z19	X20	Y20	Z20	X21	Y21	Z21	X22	Y22	Z22	X23	Y23	Z23	X24	Y24	Z24	X25	Y25	Z25	X26	Y26	Z26	X27	Y27	Z27	X28	Y28	Z28	X29	Y29	Z29	X30	Y30	Z30	X31	Y31	Z31	X32	Y32	Z32	X33	Y33	Z33	X34	Y34	Z34	X35	Y35	Z35	X36	Y36	Z36	X37	Y37	Z37	X38	Y38	Z38	X39	Y39	Z39	X40	Y40	Z40	X41	Y41	Z41	X42	Y42	Z42	X43	Y43	Z43	X44	Y44	Z44	X45	Y45	Z45	X46	Y46	Z46	X47	Y47	Z47	X48	Y48	Z48	X49	Y49	Z49	X50	Y50	Z50	X51	Y51	Z51	X52	Y52	Z52	X53	Y53	Z53	X54	Y54	Z54	X55	Y55	Z55	X56	Y56	Z56	X57	Y57	Z57	X58	Y58	Z58	X59	Y59	Z59	X60	Y60	Z60	X61	Y61	Z61	X62	Y62	Z62	X63	Y63	Z63	

226	1.125	-41.01854	-341.37631	1589.27942	59.04134	-334.37036	1592.97363	-53.64100	-494.70264	1554.30298	90.39383	-483.70294	1564.66394	16.17913	-517.62036	1425.42407	18.73058	-547.33203	1197.55676	18.00796	-392.42294	1343.08521	86.58525	-570.75104	1281.33167	-96.96570	-343.81268	920.18451	155.37250	-351.72913	939.03595	-25.53766	-524.71429	965.19482	74.07315	-525.29211	964.91473	162.46632	-491.72375	1384.66675	299.32089	-476.79648	1327.66406	452.86417	-429.40082	1302.42993	422.58990	-372.42093	1272.06970	579.12616	-404.00021	1341.19678	674.25122	-346.71664	1400.68823	691.27454	-336.93982	1334.51868	754.05988	-327.04459	1386.57251	-117.10214	-483.56238	1395.48877	-260.12704	-488.98181	1333.30151	-405.51440	-451.28668	1295.74902	-391.33597	-398.44666	1260.14478	-536.20459	-404.68823	1337.30847	-621.06677	-343.65515	1399.56067	-633.03070	-317.29617	1338.36682	-698.33105	-322.98669	1389.85986	241.59477	-411.37604	776.06946	223.87495	-422.56174	604.76587	210.98631	-362.41611	690.05121	232.19022	-417.69702	687.89471	212.92665	-432.50217	457.17227	89.63615	-468.46042	435.15555	196.85699	-415.60797	348.39236	201.94380	-431.13150	176.22823	241.17395	-468.82507	267.96344	200.70836	-422.61023	261.91360	225.54219	-487.11603	68.58578	145.10379	-470.69940	80.30597	156.63081	-347.61829	34.47532	245.08040	-380.05756	24.56017	184.60228	-289.65967	26.00909	-175.33984	-408.78467	761.10052	-162.18413	-430.95767	590.94263	-149.32370	-365.03098	669.75690	-171.43318	-420.37625	675.47577	-156.97128	-452.11499	451.94989	-27.06911	-473.08832	428.62769	-107.35532	-414.42032	346.82562	-118.25728	-429.89117	177.12314	-171.89447	-443.32355	266.95844	-113.36890	-425.78668	261.19177	-171.14174	-485.18942	69.55449	-91.14687	-468.33441	79.24689	-130.75787	-535.92737	33.38900	-111.03335	-342.64569	29.98901	-193.23541	-376.27466	24.90190	-140.01991	-283.60263	25.08614	186.67853	-535.16449	38.65086	19.11253	-341.91699	1221.17957						 
227	1.130	-41.01509	-341.37473	1589.27808	58.99273	-334.47244	1593.00305	-53.52547	-494.66006	1554.25342	90.54825	-483.71698	1564.66931	16.18224	-517.62091	1425.40808	18.76768	-547.29364	1197.55054	18.01434	-392.42715	1343.08264	86.59927	-570.74536	1281.31665	-96.97290	-343.82489	920.17126	155.37103	-351.72537	939.03632	-25.54969	-524.71600	965.21948	74.08603	-525.28644	964.91016	162.47925	-491.72687	1384.67603	299.38348	-476.76337	1327.63757	452.82703	-429.36646	1302.42993	422.71420	-372.63858	1271.99585	579.15118	-403.97366	1341.19287	674.23712	-346.70190	1400.63171	691.27545	-336.93851	1334.52881	754.10260	-327.01416	1386.55225	-117.10854	-483.56940	1395.49268	-260.11383	-488.97299	1333.29138	-405.53668	-451.26367	1295.75671	-391.31262	-398.29471	1260.09009	-536.15765	-404.68320	1337.29578	-621.00897	-343.58640	1399.53931	-633.02521	-317.37137	1338.37000	-698.33325	-322.92297	1389.86218	241.57518	-411.25528	775.94733	223.88896	-422.58142	604.76752	211.04486	-362.42929	690.08142	232.35579	-418.00015	688.06555	212.94466	-432.56729	457.23856	89.63436	-468.46246	435.14893	196.79535	-415.58487	348.43167	201.93640	-431.13574	176.22868	241.15771	-468.84958	267.94702	200.73645	-422.60135	261.90485	225.49565	-487.11234	68.65324	145.11978	-470.67169	80.31983	156.63086	-347.64600	34.47621	245.07260	-380.04599	24.56456	184.59706	-289.68359	25.97538	-175.34926	-408.82288	761.10144	-162.20311	-430.92920	590.94061	-149.32307	-365.03134	669.74561	-171.41104	-420.38034	675.44061	-156.94785	-452.09573	451.95157	-27.08457	-473.11673	428.62277	-107.35744	-414.37720	346.81454	-118.26644	-429.88672	177.12065	-171.84880	-443.33401	266.92020	-113.36818	-425.81586	261.22437	-171.16878	-485.15610	69.53980	-91.09931	-468.32730	79.24835	-130.75673	-535.94305	33.37775	-111.05674	-342.60449	30.00676	-193.18188	-376.26358	24.87787	-140.01169	-283.61511	25.04195	186.83884	-534.93640	38.95481	19.06144	-341.84549	1221.19165						 
228	1.135	-41.01644	-341.37534	1589.27856	59.09061	-334.35437	1592.96008	-53.62555	-494.74100	1554.29871	90.63106	-483.73087	1564.87952	16.17254	-517.64276	1425.37744	18.74887	-547.30951	1197.55237	17.97243	-392.44183	1343.09607	86.60101	-570.74457	1281.31592	-96.97253	-343.82642	920.17188	155.38142	-351.74442	939.03894	-25.51651	-524.74542	965.17438	74.07977	-525.28656	964.88538	162.49872	-491.72131	1384.57629	299.35718	-476.78552	1327.66870	452.86136	-429.39197	1302.40588	422.53659	-372.35129	1272.08289	579.15253	-403.96851	1341.19714	674.22961	-346.70340	1400.68689	691.24988	-336.93335	1334.52893	754.10016	-326.99698	1386.59448	-117.09786	-483.55927	1395.49500	-260.11118	-488.97003	1333.29968	-405.48410	-451.20322	1295.68140	-391.26627	-398.34222	1260.11792	-536.18549	-404.66568	1337.30481	-621.03815	-343.60733	1399.50500	-633.02203	-317.26782	1338.32544	-698.33228	-322.92212	1389.84131	241.57867	-411.23376	775.94287	223.88905	-422.58408	604.79364	210.99132	-362.43552	690.03925	232.22777	-417.75174	687.90314	212.93089	-432.59109	457.21573	89.63177	-468.46637	435.16309	196.76512	-415.57745	348.43423	201.96124	-431.10870	176.19563	240.96915	-468.99927	267.94891	200.71091	-422.60818	261.91422	225.51498	-487.12698	68.67292	145.09666	-470.70425	80.32490	156.67819	-347.69760	34.40509	245.07996	-380.05701	24.56278	184.61789	-289.66626	26.03524	-175.35437	-408.82666	761.09656	-162.17526	-430.95862	590.90753	-149.30630	-365.02103	669.74878	-171.42329	-420.38025	675.46478	-156.94957	-452.10449	451.94504	-27.21712	-473.24020	428.66241	-107.35815	-414.39377	346.81140	-118.27009	-429.88986	177.11070	-171.86424	-443.34589	266.93463	-113.38457	-425.79886	261.19153	-171.14291	-485.17734	69.54321	-91.12445	-468.34607	79.24560	-130.76697	-535.98120	33.40277	-110.99623	-342.48407	30.11565	-193.14496	-376.28699	24.86032	-140.00764	-283.63116	25.02575	186.53195	-535.44086	38.78644	19.11328	-341.91888	1221.18066						 
229	1.140	-41.01668	-341.37546	1589.27869	59.09953	-334.33804	1592.95898	-53.56627	-494.65100	1554.26318	89.80798	-483.65237	1564.58679	16.19919	-517.64050	1425.36035	18.74355	-547.31445	1197.55347	17.99626	-392.46497	1343.08081	86.58354	-570.76721	1281.30151	-96.95426	-343.82483	920.16541	155.37856	-351.73102	939.02673	-25.55220	-524.73944	965.17828	74.05507	-525.33844	964.91388	162.46281	-491.72025	1384.61011	299.35904	-476.77805	1327.63672	452.85419	-429.36670	1302.40430	422.53418	-372.30322	1272.03235	579.13300	-403.95807	1341.16968	674.22821	-346.65698	1400.61841	691.24731	-336.93155	1334.51440	754.04773	-326.98785	1386.57703	-117.19652	-483.66098	1395.48792	-260.06119	-488.97763	1333.25574	-405.47296	-451.19724	1295.67676	-391.26816	-398.39914	1260.08325	-536.15930	-404.63669	1337.27063	-620.99451	-343.58826	1399.46802	-632.94922	-317.16068	1338.28967	-698.34357	-322.86185	1389.82275	241.57724	-411.25314	775.92487	223.89662	-422.58917	604.79285	211.01228	-362.48264	690.06250	232.19878	-417.70782	687.88208	212.91426	-432.56976	457.18924	89.65044	-468.47174	435.16083	196.78839	-415.58517	348.44562	201.96043	-431.10983	176.19365	241.16484	-468.84277	267.94992	200.70435	-422.60846	261.91098	225.55609	-487.08606	68.67248	145.12691	-470.71008	80.31828	156.70158	-347.69946	34.38419	245.07469	-380.05341	24.57116	184.61713	-289.65671	26.00816	-175.34708	-408.82596	761.10199	-162.21280	-430.91931	590.95135	-149.29744	-365.06140	669.79272	-171.40155	-420.38171	675.46375	-156.95216	-452.10760	451.94467	-27.09988	-473.14722	428.61313	-107.35752	-414.39807	346.81076	-118.25154	-429.93283	177.05618	-171.85545	-443.34991	266.92450	-113.39305	-425.80899	261.19019	-171.13312	-485.16934	69.53516	-91.13980	-468.33237	79.21807	-130.70923	-535.94556	33.34426	-111.02556	-342.61874	29.99360	-193.17757	-376.25900	24.85591	-139.98865	-283.61270	25.01603	186.49263	-535.48511	38.78568	19.15382	-341.97842	1221.17017						 
